{"title":"Paramparca S01E10 DVB-T By Ari Gr Subs (Ragismenes Kardies)","uid":12659292,"size":526402319,"categoryP":"video","categoryS":"tv_shows","magnet":"?xt=urn:btih:e77b43886b91f63dbc6c5ce361aac1f89cdf1a25&amp;dn=Paramparca+S01E10+DVB-T+By+Ari+Gr+Subs+%28Ragismenes+Kardies%29&amp;tr=udp%3A%2F%2Ftracker.leechers-paradise.org%3A6969&amp;tr=udp%3A%2F%2Fzer0day.ch%3A1337&amp;tr=udp%3A%2F%2Fopen.demonii.com%3A1337&amp;tr=udp%3A%2F%2Ftracker.coppersurfer.tk%3A6969&amp;tr=udp%3A%2F%2Fexodus.desync.com%3A6969","seeders":1,"leechers":0,"uploader":"Aris2015","files":1,"time":1446279465,"description":"Î Î¡ÎŸÎ£ÎŸÎ§Î— : ÎœÎ•Î¤Î‘ Î¤ÎŸ Î¤Î•Î›ÎŸÎ£ Î¤ÎŸÎ¥ ÎšÎ‘Î¤Î•Î’Î‘Î£ÎœÎ‘Î¤ÎŸÎ£, ÎœÎ— Î¤ÎŸ Î”Î™Î‘Î“Î¡Î‘Î¨Î•Î¤Î• Î‘Î ÎŸ Î¤ÎŸ Î¤ÎŸÎ¡Î¡Î•ÎÎ¤. ÎšÎ¡Î‘Î¤Î©ÎÎ¤Î‘Î£ Î¤ÎŸ ÎšÎ‘Î™ SEEDÎ‘Î¡ÎŸÎÎ¤Î‘Î£, Î”Î™ÎÎ•Î¤Î• Î¤Î‘Î§Î¥Î¤Î—Î¤Î‘ Î£Î¤ÎŸÎ¥Î£ Î‘Î›Î›ÎŸÎ¥Î£!\r\n\r\nÎšÎ±Î»ÏŒ ÎºÎ±Î¹ ÏƒÏ‰ÏƒÏ„ÏŒ ÎµÎ¯Î½Î±Î¹ Î½Î± Î±Ï†Î®Î½ÎµÏ„Îµ Ï„Î¿Î½ Ï…Ï€Î¿Î»Î¿Î³Î¹ÏƒÏ„Î® ÏƒÎ±Ï‚ Î±Î½Î¿Î¹Ï‡Ï„ÏŒ ÏŽÏƒÏ„Îµ Î½Î± ÎºÎ±Ï„ÎµÎ²Î¬ÏƒÎ¿Ï…Î½ ÎºÎ¹ Î¬Î»Î»Î¿Î¹ Î±Ï…Ï„ÏŒ Ï€Î¿Ï… ÎºÎ±Ï„ÎµÎ²Î¬ÏƒÎ±Ï„Îµ ÎµÏƒÎµÎ¯Ï‚. \r\nÎ•Ï€Î¹Ï„ÏÎµÏ€ÏŒÎ¼ÎµÎ½Î· Î±Î½Î±Î»Î¿Î³Î¯Î±. Î¤Î± Ï„Î¿ÏÏÎµÎ½Ï„ Ï€Î¿Ï… ÎºÎ±Ï„ÎµÎ²Î¬Î¶ÎµÏ„Î±Î¹ Î½Î± Î¼Î­Î½Î¿Ï…Î½ ÎµÎ½ÎµÏÎ³Î¬ Î³Î¹Î± 72 ÏŽÏÎµÏ‚, 3 Î¼Î­ÏÎµÏ‚ Î¼Î· ÏƒÏ…Î½ÎµÏ‡ÏŒÎ¼ÎµÎ½Î¿Ï… Seed \r\nÎ‘Î½ Ï…Ï€Î¬ÏÏ‡ÎµÎ¹ Î´Ï…Î½Î±Ï„ÏŒÏ„Î·Ï„Î± Î½Î± Î¼Î­Î½Î¿Ï…Î½ ÎºÎ±Î¹ Ï€Î±ÏÎ±Ï€Î¬Î½Ï‰ Î³Î¹Î± Î½Î± Î¼Î­Î½Î¿Ï…Î½ ÎµÎ½ÎµÏÎ³Î¬ Î±Ï…Ï„ÏŒ Î¸Î± Î®Ï„Î±Î½ ÎºÎ±Î»ÏÏ„ÎµÏÎ¿. \r\n\r\n\r\n\r\nGeneral\r\nComplete name               : Paramparca S01E10 DVB-T By Ari.mp4\r\nFormat                      : MPEG-4\r\nFormat profile              : Base Media\r\nCodec ID                    : isom\r\nFile size                   : 502 MiB\r\nDuration                    : 58mn 56s\r\nOverall bit rate            : 1 191 Kbps\r\nEncoded date                : UTC 2015-10-31 00:53:28\r\nTagged date                 : UTC 2015-10-31 00:53:28\r\nWriting application         : Lavf57.3.100\r\n\r\nVideo\r\nID                          : 1\r\nFormat                      : AVC\r\nFormat/Info                 : Advanced Video Codec\r\nFormat profile              :   \r\nFormat settings, CABAC      : Yes\r\nFormat settings, ReFrames   : 5 frames\r\nCodec ID                    : avc1\r\nCodec ID/Info               : Advanced Video Coding\r\nDuration                    : 58mn 56s\r\nBit rate                    : 1 057 Kbps\r\nWidth                       : 720 pixels\r\nHeight                      : 404 pixels\r\nDisplay aspect ratio        : 16:9\r\nOriginal display aspect rat : 16:9\r\nFrame rate mode             : Constant\r\nFrame rate                  : 25.000 fps\r\nStandard                    : PAL\r\nColor space                 : YUV\r\nChroma subsampling          : 4:2:0\r\nBit depth                   : 8 bits\r\nScan type                   : Progressive\r\nBits/(Pixel*Frame)          : 0.145\r\nStream size                 : 446 MiB (89%)\r\nWriting library             : x264 core 148 r2538\r\nLanguage                    : Turkish\r\nEncoded date                : UTC 2015-10-31 00:53:28\r\nTagged date                 : UTC 2015-10-31 00:53:28\r\nColor range                 : Limited\r\nColor primaries             : BT.709\r\nTransfer characteristics    : BT.709\r\nMatrix coefficients         : BT.709\r\n\r\nAudio\r\nID                          : 2\r\nFormat                      : AAC\r\nFormat/Info                 : Advanced Audio Codec\r\nFormat profile              : LC\r\nCodec ID                    : 40\r\nDuration                    : 58mn 56s\r\nDuration_LastFrame          : -16ms\r\nBit rate mode               : Constant\r\nBit rate                    : 128 Kbps\r\nChannel(s)                  : 2 channels\r\nChannel positions           : Front: L R\r\nSampling rate               : 48.0 KHz\r\nCompression mode            : Lossy\r\nStream size                 : 53.9 MiB (11%)\r\nLanguage                    : Turkish\r\nEncoded date                : UTC 2015-10-31 00:53:28\r\nTagged date                 : UTC 2015-10-31 00:53:28\r\n\r\nÎ Î¡ÎŸÎ£ÎŸÎ§Î— : ÎœÎ•Î¤Î‘ Î¤ÎŸ Î¤Î•Î›ÎŸÎ£ Î¤ÎŸÎ¥ ÎšÎ‘Î¤Î•Î’Î‘Î£ÎœÎ‘Î¤ÎŸÎ£, ÎœÎ— Î¤ÎŸ Î”Î™Î‘Î“Î¡Î‘Î¨Î•Î¤Î• Î‘Î ÎŸ Î¤ÎŸ Î¤ÎŸÎ¡Î¡Î•ÎÎ¤. ÎšÎ¡Î‘Î¤Î©ÎÎ¤Î‘Î£ Î¤ÎŸ ÎšÎ‘Î™ SEEDÎ‘Î¡ÎŸÎÎ¤Î‘Î£, Î”Î™ÎÎ•Î¤Î• Î¤Î‘Î§Î¥Î¤Î—Î¤Î‘ Î£Î¤ÎŸÎ¥Î£ Î‘Î›Î›ÎŸÎ¥Î£!","torrent":{"xt":"urn:btih:e77b43886b91f63dbc6c5ce361aac1f89cdf1a25","amp;dn":"Paramparca+S01E10+DVB-T+By+Ari+Gr+Subs+%28Ragismenes+Kardies%29","amp;tr":["udp%3A%2F%2Ftracker.leechers-paradise.org%3A6969","udp%3A%2F%2Fzer0day.ch%3A1337","udp%3A%2F%2Fopen.demonii.com%3A1337","udp%3A%2F%2Ftracker.coppersurfer.tk%3A6969","udp%3A%2F%2Fexodus.desync.com%3A6969"],"infoHash":"e77b43886b91f63dbc6c5ce361aac1f89cdf1a25","infoHashBuffer":{"type":"Buffer","data":[231,123,67,136,107,145,246,61,188,108,92,227,97,170,193,248,156,223,26,37]},"announce":[],"urlList":[]}}